<svg width="54" height="54" viewBox="0 0 54 54" fill="none" xmlns="http://www.w3.org/2000/svg">
<path d="M27 0C30.8813 0 34.2562 2.1832 35.9543 5.38945C39.4242 4.2293 43.2527 5.16375 46.0898 7.90805C48.832 10.6523 49.5809 14.5758 48.6105 18.0457C51.8168 19.7438 54 23.1187 54 27C54 30.8813 51.8168 34.2562 48.6105 35.9543C49.6758 39.4242 48.832 43.2527 46.0898 46.0898C43.2527 48.832 39.4242 49.5809 35.9543 48.6105C34.2562 51.8168 30.8813 54 27 54C23.1187 54 19.7438 51.8168 18.0457 48.6105C14.5758 49.6758 10.6523 48.832 7.90805 46.0898C5.16375 43.2527 4.32422 39.4242 5.38945 35.9543C2.1832 34.2562 0 30.8813 0 27C0 23.1187 2.1832 19.7438 5.38945 18.0457C4.2293 14.5758 5.16375 10.6523 7.90805 7.90805C10.6523 5.16375 14.5758 4.32422 18.0457 5.38945C19.7438 2.1832 23.1187 0 27 0ZM29.1199 15.7465C29.1199 14.5758 28.1707 13.6266 27.0949 13.6266C25.9242 13.6266 24.975 14.5758 24.975 15.7465V16.643C24.2684 16.7801 23.5934 16.991 22.9711 17.2652C21.273 18.0352 19.8176 19.459 19.459 21.4207C19.2586 22.6652 19.3746 23.7727 19.8387 24.7641C20.3027 25.7449 21.041 26.4516 21.7898 26.9578C23.1188 27.8543 24.8801 28.3922 26.1668 28.8035L26.5043 28.8773C28.1285 29.373 29.2781 29.7527 30.0059 30.2801C30.3223 30.5121 30.4594 30.702 30.5227 30.8496C30.5859 30.9973 30.6598 31.2609 30.5648 31.7672C30.4805 32.2629 30.1957 32.6742 29.4996 32.9695C28.7297 33.2965 27.4324 33.4547 25.9875 33.2121C25.2703 33.0961 23.9836 32.6531 22.8656 32.2734C22.6125 32.1891 22.3699 32.1047 22.1379 32.0309C21.0305 31.6617 19.8387 32.2629 19.4695 33.3598C19.1004 34.4672 19.7016 35.6695 20.7984 36.0281C20.9461 36.0809 21.1254 36.1441 21.3363 36.2074C22.3066 36.5449 23.857 37.0723 24.975 37.3148V38.2535C24.975 39.4242 25.9242 40.3734 27.0949 40.3734C28.1707 40.3734 29.1199 39.4242 29.1199 38.2535V37.4098C29.8898 37.2938 30.5437 37.1145 31.1555 36.8508C32.9379 36.0914 34.3512 34.6254 34.7203 32.4844C34.9313 31.3137 34.8363 30.1852 34.3934 29.1727C33.866 28.1602 33.2438 27.327 32.4844 26.8734C31.1027 25.8609 29.2359 25.2914 27.8121 24.8695L27.7277 24.8379C26.0824 24.3422 24.9117 23.9836 24.1629 23.4668C23.741 23.2453 23.7094 23.0766 23.6566 22.9605C23.6145 22.8762 23.5406 22.5809 23.6145 22.2328C23.6777 21.9059 23.9203 21.4734 24.7113 21.1148C25.5129 20.7457 26.7363 20.5559 28.2023 20.7879C28.7191 20.8723 30.3117 21.1781 30.7652 21.2098C31.8938 21.6 33.0539 20.9355 33.3492 19.807C33.6551 18.6785 32.9801 17.5289 31.8516 17.223C31.3031 17.0754 29.9742 16.8117 29.1199 16.6852V15.7465Z" fill="url(#paint0_linear_1301_2616)"/>
<defs>
<linearGradient id="paint0_linear_1301_2616" x1="4.02331e-07" y1="27" x2="54" y2="27" gradientUnits="userSpaceOnUse">
<stop stop-color="#F059FC"/>
<stop offset="1" stop-color="#16BBFD"/>
</linearGradient>
</defs>
</svg>
