<svg width="52" height="54" viewBox="0 0 52 54" fill="none" xmlns="http://www.w3.org/2000/svg">
<path d="M40.8289 38.5594C42.991 40.0676 44.5625 42.641 44.5625 45.5625C44.5625 50.2242 40.7867 54 36.125 54C31.4633 54 27.6875 50.2242 27.6875 45.5625C27.6875 44.6766 27.8246 43.8117 28.0777 43.0102L12.7215 29.5734C11.6352 30.0902 10.4128 30.375 9.125 30.375C4.46539 30.375 0.6875 26.5992 0.6875 21.9375C0.6875 17.2758 4.46539 13.5 9.125 13.5C11.4348 13.5 13.523 14.4281 15.0523 15.9363L34.4375 8.17594C34.5746 3.63656 38.2977 0 42.875 0C47.5367 0 51.3125 3.77789 51.3125 8.4375C51.3125 12.4348 48.5387 15.7781 44.8156 16.6535L40.8289 38.5594ZM17.1723 24.4898L32.5285 37.9266C33.0559 37.684 33.6043 37.4836 34.1844 37.3465L38.1711 15.4406C37.7281 15.1453 37.3273 14.8078 36.9477 14.4387L17.4676 22.2012C17.5309 22.9922 17.4043 23.7621 17.1723 24.4898Z" fill="url(#paint0_linear_1301_2604)"/>
<defs>
<linearGradient id="paint0_linear_1301_2604" x1="-0.999999" y1="27" x2="51.6875" y2="27" gradientUnits="userSpaceOnUse">
<stop stop-color="#F059FC"/>
<stop offset="1" stop-color="#16BBFD"/>
</linearGradient>
</defs>
</svg>
