<svg width="54" height="54" viewBox="0 0 54 54" fill="none" xmlns="http://www.w3.org/2000/svg">
<rect width="54" height="54" fill="white"/>
<path d="M53.8352 33.6823C53.4977 32.862 52.695 32.2513 51.8102 32.2513H47.4319V19.2083C47.4319 15.1888 44.1573 11.9167 40.1347 11.9167H28.4592C26.8474 11.9167 25.5403 13.221 25.5403 14.8333C25.5403 16.4457 26.8474 17.75 28.4592 17.75H40.1347C40.9374 17.75 41.5941 18.4062 41.5941 19.2083V32.2513H37.2158C36.3308 32.2513 35.5329 32.784 35.1936 33.6021C34.8543 34.4202 35.0425 35.3603 35.6682 35.9865L42.9654 43.2799C43.3911 43.7904 43.9566 44 44.513 44C45.0694 44 45.6331 43.7864 46.0609 43.3592L53.3582 36.0657C53.9812 35.4414 54.1727 34.5026 53.8352 33.6823ZM25.5403 35.25H13.8648C13.0621 35.25 12.4053 34.5938 12.4053 33.7917V20.6667H16.7836C17.6687 20.6667 18.4666 20.134 18.8059 19.3159C19.1452 18.4978 18.9569 17.5577 18.3313 16.9315L11.0341 9.63802C10.6084 9.21328 10.0429 9 9.48644 9C8.93003 9 8.3645 9.21328 7.93578 9.64076L0.638579 16.9342C0.0155798 17.5586 -0.172323 18.4974 0.166997 19.3177C0.506317 20.138 1.30445 20.6667 2.18923 20.6667H6.56756V33.7917C6.56756 37.8112 9.84218 41.0833 13.8648 41.0833H25.5403C27.1521 41.0833 28.4592 39.779 28.4592 38.1667C28.4592 36.5543 27.1548 35.25 25.5403 35.25Z" fill="url(#paint0_linear_1301_2609)"/>
<defs>
<linearGradient id="paint0_linear_1301_2609" x1="53.6132" y1="9" x2="2.96197" y2="9" gradientUnits="userSpaceOnUse">
<stop stop-color="#16BBFD"/>
<stop offset="1" stop-color="#F059FC"/>
</linearGradient>
</defs>
</svg>
